<svg width="40" height="41" viewBox="0 0 40 41" fill="none" xmlns="http://www.w3.org/2000/svg">
<circle cx="20" cy="20.0161" r="20" fill="#EDFFFC"/>
<path d="M25 10.0161H15C12.2386 10.0161 10 12.2547 10 15.0161V25.0161C10 27.7775 12.2386 30.0161 15 30.0161H25C27.7614 30.0161 30 27.7775 30 25.0161V15.0161C30 12.2547 27.7614 10.0161 25 10.0161Z" stroke="#02897A" stroke-width="2" stroke-linecap="round" stroke-linejoin="round"/>
<path d="M24 19.3862C24.1234 20.2184 23.9812 21.0684 23.5937 21.8152C23.2062 22.562 22.5931 23.1676 21.8416 23.5458C21.0901 23.9241 20.2384 24.0558 19.4077 23.9221C18.5771 23.7884 17.8097 23.3963 17.2148 22.8013C16.6199 22.2064 16.2277 21.439 16.094 20.6084C15.9604 19.7777 16.092 18.9261 16.4703 18.1745C16.8485 17.423 17.4541 16.8099 18.2009 16.4224C18.9477 16.0349 19.7977 15.8928 20.63 16.0162C21.4789 16.1421 22.2648 16.5376 22.8716 17.1445C23.4785 17.7513 23.8741 18.5372 24 19.3862Z" stroke="#02897A" stroke-width="2" stroke-linecap="round" stroke-linejoin="round"/>
<path d="M25.5 14.5161H25.51" stroke="#02897A" stroke-width="2" stroke-linecap="round" stroke-linejoin="round"/>
</svg>
